<?xml version="1.0" encoding="UTF-8"?>
<svg id="Layer_1" xmlns="http://www.w3.org/2000/svg" version="1.1" viewBox="0 0 96 96">
  <!-- Generator: Adobe Illustrator 30.1.0, SVG Export Plug-In . SVG Version: 2.1.1 Build 136)  -->
  <defs>
    <style>
      .st0 {
        fill: #d1d3d4;
      }

      .st1 {
        fill: #f6931e;
      }

      .st2 {
        fill: #495779;
      }
    </style>
  </defs>
  <rect class="st2" x="1.01" y="1.08" width="94.11" height="94.11" rx="19.14" ry="19.14"/>
  <path class="st1" d="M34.78,48.7h-8.38l2.7-9.94,5.69,9.94ZM65.23,74.45l-26.86-46.61c-3.22-5.42-10.56-5.96-17.81-5.96l.03.03h-.79l-15.4,52.54h15.04l3.58-13.23h18.91s4.14,7.28,4.14,7.28c3.22,5.42,11.91,5.96,19.16,5.96"/>
  <path class="st0" d="M85.95,37.03c0-8.4-6.59-15.21-14.71-15.21h-29.51c4.67.93,6.46,5.56,9.89,11.05h17.83c2.22,0,4.03,1.87,4.03,4.17s-1.8,4.17-4.03,4.17h-13.2l16.04,27.3c2.68,4.51,8.63,5.7,14.7,5.96h4.76l-13.94-23.82c4.83-2.5,8.15-7.64,8.15-13.6"/>
</svg>