<?xml version="1.0" encoding="UTF-8"?><svg id="b" xmlns="http://www.w3.org/2000/svg" viewBox="0 0 88.28 52.29"><g id="c"><path d="M31.22,26.71h-8.61l2.77-9.88,5.84,9.88ZM62.5,52.29L34.9,5.99C31.59.61,24.05.07,16.61.07l.03.03h-.82L0,52.29h15.45l3.67-13.14h19.43s4.26,7.23,4.26,7.23c3.31,5.38,12.23,5.92,19.68,5.92" style="fill:#f6931e;"/><path d="M82.33,15.12c0-8.35-6.77-15.12-15.12-15.12h-30.31c4.79.92,6.63,5.53,10.16,10.98h18.32c2.29,0,4.14,1.85,4.14,4.14s-1.85,4.14-4.14,4.14h-13.56l16.48,27.13c2.76,4.48,8.87,5.67,15.1,5.92h4.89l-14.32-23.67c4.96-2.48,8.37-7.59,8.37-13.51" style="fill:#495779;"/></g></svg>