<?xml version="1.0" encoding="UTF-8"?>
<svg xmlns="http://www.w3.org/2000/svg" version="1.1" viewBox="0 0 253.9 66.1">
  <defs>
    <style>
      .cls-1 {
        fill: #f6931e;
      }

      .cls-2 {
        fill: #fefefe;
      }

      .cls-3 {
        fill: #ababab;
      }
    </style>
  </defs>
  <!-- Generator: Adobe Illustrator 28.7.1, SVG Export Plug-In . SVG Version: 1.2.0 Build 142)  -->
  <g>
    <g id="ar_logo_header">
      <g id="ar_logo_graphic">
        <path class="cls-1" d="M130.4,2.9c-1.9-1.9-4.7-2.9-8.2-2.9H11.1C7.6,0,4.9,1,2.9,2.9,1,4.8,0,7.6,0,11.1v43.8c0,3.5,1,6.2,2.9,8.2,2,2,4.7,3,8.2,3h111.1c3.5,0,6.3-1,8.2-3s2.9-4.7,2.9-8.2V11.1c0-3.5-1-6.3-2.9-8.2Z"/>
        <path class="cls-2" d="M122.6,19.9c-2-2.3-5-3.6-8.1-3.5h-6.2c-3.1-.2-6.1,1.1-8.1,3.5-1.9,2.3-2.9,5.6-2.9,9.8v17.1c0,4.2,1,7.4,2.9,9.8,2,2.4,5,3.7,8.1,3.5h6.2c3.1.2,6.1-1.1,8.1-3.5,2-2.3,2.9-5.6,2.9-9.8v-17.1c0-4.2-1-7.5-2.9-9.8ZM118.7,47.5c0,4.2-1.7,6.3-5.1,6.3h-4.3c-1.5.1-2.9-.4-3.9-1.5-.9-1.4-1.3-3.1-1.2-4.8v-18.4c-.1-1.7.3-3.3,1.2-4.8,1-1.1,2.4-1.6,3.9-1.5h4.3c3.4,0,5.1,2.1,5.1,6.3v18.4Z"/>
        <path class="cls-2" d="M92.9,53h-2.2c-3.1-.2-4.7-2-4.7-5.2v-24.7c0-.5.3-.7.8-.7h4.7c.9,0,1.3-.4,1.3-1.1v-3.7c0-.8-.4-1.2-1.3-1.2h-4.7c-.5,0-.8-.2-.8-.7v-7.7c0-.6-.3-1.1-.9-1.2,0,0-.2,0-.3,0l-4.4,3.4c-.6.4-1.4.8-1.4,1.6v36.4c0,3.5,1,6.2,3,8.1s4.8,2.9,8.3,2.9h2.7c.6,0,.9-.4.9-1.2v-3.8c0-.8-.3-1.1-1-1.1Z"/>
        <path class="cls-2" d="M70.4,16.4h-4.1c-.8,0-1.3.4-1.3,1.1v.6h0v28.6c0,4.2-1.7,7.2-5,7.2h-4.2c-1.5,0-2.9-.8-3.8-2-.8-1-1.2-3-1.2-5.2v-26.7h0v-2.5c0-.8-.5-1.1-1.3-1.1h-4.1c-.8,0-1.3.4-1.3,1.1v.6h0v27.9c0,4.2.9,7.5,2.8,9.9,1.9,2.4,4.9,3.7,7.9,3.6h6.1c3,.1,6-1.2,7.9-3.5,1.9-2.4,2.9-5.7,2.9-9.9v-26.1h0v-2.5c0-.8-.4-1.1-1.3-1.1Z"/>
        <path class="cls-2" d="M38.8,53h0c-.4-.2-.8-.5-1.2-.9-.8-1.2-1.2-2.6-1.2-4,0,0,0-.2,0-.2v-20.6c.1-3.1-1.2-6-3.6-7.9-2.4-1.9-5.7-2.9-9.9-2.9h-11.8c-.8,0-1.1.4-1.1,1.3v4.1c0,.8.4,1.3,1.1,1.3h12.4c4.2,0,6.4,1.7,6.4,5v3.7h-10.8c-3.5,0-6.3.9-8.2,2.8-1.9,1.9-2.9,4.6-2.9,8v5.5c0,3.4,1,6.1,2.9,8,1.9,2,4.6,3.1,7.3,2.9h6.3c3.4,0,5.6-1,6.9-3.1.3.5.6.9.9,1.3,1.5,1.9,3.6,2.2,6.2,2.5h.1c.7,0,1-.5,1-1.3v-4.2c0-.8-.3-1.2-1-1.3ZM29.8,47.2c0,4.4-2.1,6.6-6.3,6.6h-3.7c-3.7,0-5.6-1.9-5.6-5.7v-5.4c0-3.8,1.9-5.7,5.6-5.7h9.2c.6,0,.9.3.9.8v9.5Z"/>
        <path class="cls-3" d="M251,19c-2-2.4-4.9-3.7-8-3.5h-6.1c-3.1-.2-6,1.1-8,3.5-1.9,2.4-2.8,5.7-2.8,10v17.3c0,4.2.9,7.5,2.8,9.9,1.9,2.4,4.9,3.7,8,3.6h6.1c3.1.1,6.1-1.2,8-3.6,1.9-2.4,2.9-5.7,2.9-9.9v-17.4c0-4.3-1-7.6-2.9-9.9ZM247.1,46.9c0,4.2-1.7,6.3-5,6.3h-4.3c-1.4.1-2.9-.4-3.8-1.5-.9-1.4-1.3-3.1-1.2-4.8v-18.6c-.1-1.7.3-3.4,1.2-4.8,1-1.1,2.4-1.6,3.8-1.5h4.3c3.3,0,5,2.1,5,6.3v18.5Z"/>
        <path class="cls-3" d="M184.5,53.9h-15.4c-1.5,0-2.9-.7-3.7-1.9-.9-1.4-1.3-3.1-1.1-4.8v-7.8h21.1v-10c0-4.2-.9-7.5-2.8-9.8-1.9-2.3-4.8-3.6-7.8-3.5h-6c-3-.2-5.9,1.1-7.8,3.5-1.8,2.3-2.8,5.6-2.8,9.8v17.1c0,4.2.9,7.4,2.8,9.8,1.9,2.4,4.8,3.7,7.8,3.5h15.8c.6,0,.9-.5.9-1.2v-3.6c0-.7-.3-1.1-.9-1.1ZM164.2,28c-.1-1.7.3-3.3,1.1-4.8.9-1.1,2.3-1.6,3.7-1.5h5.4c3.3,0,4.9,2.1,4.9,6.2v6h-15.2v-6Z"/>
        <path class="cls-3" d="M152.5,16.1h-3c-2.5-.1-4.9.9-6.5,2.8-1.6,1.9-2.4,4.5-2.4,8v31.3c0,.7.4,1,1.2,1h3.8c.8,0,1.1-.3,1.1-1v-31c0-3.4.8-5.2,3.6-5.2h2.2c.7,0,1-.4,1-1.2v-3.7c0-.8-.3-1.1-1-1.1Z"/>
        <path class="cls-3" d="M221.2,16.5h-4.4c-.8.1-1.2.2-1.4.9l-6.4,30.8s-.6,4.5-3.3,4.3h-.6c-2.3-.5-2.8-4.3-2.8-4.3l-6.4-31c-.1-.7-.6-.7-1.4-.7h-4.4c-.7,0-1,.4-.9,1.1l7.4,33.7s2.3,7.5,8.4,7.9h.6c6.5,0,8.8-7.9,8.8-7.9l7.3-33.6c.2-.6-.1-1.1-.8-1.2Z"/>
      </g>
    </g>
  </g>
</svg>