<?xml version="1.0" encoding="UTF-8"?>
<svg id="Layer_1" xmlns="http://www.w3.org/2000/svg" version="1.1" viewBox="0 0 360 50">
  <!-- Generator: Adobe Illustrator 30.1.0, SVG Export Plug-In . SVG Version: 2.1.1 Build 136)  -->
  <defs>
    <style>
      .st0 {
        fill: #f6931e;
      }

      .st1 {
        fill: #939598;
      }

      .st2 {
        fill: #495779;
      }
    </style>
  </defs>
  <path class="st0" d="M29,25.26h-7.65l2.46-8.78,5.19,8.78ZM56.79,47.99L32.27,6.84C29.33,2.06,22.63,1.58,16.01,1.58l.03.03h-.72L1.25,47.99h13.73l3.26-11.68h17.27s3.78,6.42,3.78,6.42c2.94,4.78,10.87,5.26,17.49,5.26"/>
  <path class="st2" d="M77.05,14.95c0-7.42-6.01-13.43-13.43-13.43h-26.93c4.26.82,5.9,4.91,9.03,9.75h16.28c2.03,0,3.68,1.65,3.68,3.68s-1.65,3.68-3.68,3.68h-12.05l14.64,24.1c2.45,3.98,7.88,5.03,13.42,5.26h4.34l-12.73-21.03c4.41-2.2,7.44-6.75,7.44-12.01"/>
  <path class="st1" d="M121.17,34.67l-2.07-3.97h-12.57l-2.07,3.97h-4.77l10.25-19.83h5.74l10.25,19.83h-4.77ZM112.83,18.55l-4.08,7.88h8.16l-4.08-7.88Z"/>
  <path class="st1" d="M157.38,24.75c0,1.44-.25,2.79-.74,4.07s-1.2,2.39-2.12,3.36c-.92.96-2.03,1.73-3.34,2.29-1.31.57-2.78.85-4.41.85s-3.1-.28-4.41-.85c-1.31-.57-2.43-1.33-3.35-2.29-.93-.96-1.64-2.08-2.13-3.36s-.74-2.63-.74-4.07v-9.92h4.49v9.92c0,.85.12,1.66.37,2.42.25.77.62,1.44,1.12,2.03.5.59,1.14,1.05,1.91,1.39.77.34,1.69.51,2.74.51s1.96-.17,2.73-.51c.77-.34,1.4-.8,1.9-1.39.5-.58.88-1.26,1.12-2.03.25-.76.37-1.57.37-2.42v-9.92h4.49v9.92Z"/>
  <path class="st1" d="M180.97,19.12v15.56h-4.46v-15.56h-8.03v-4.28h20.53v4.28h-8.03Z"/>
  <path class="st1" d="M223.5,24.75c0,1.44-.27,2.79-.82,4.07-.54,1.27-1.33,2.39-2.36,3.36s-2.28,1.73-3.76,2.29c-1.48.57-3.15.85-5.02.85s-3.54-.28-5.02-.85c-1.48-.57-2.73-1.33-3.76-2.29-1.03-.96-1.82-2.08-2.36-3.36s-.82-2.63-.82-4.07.27-2.79.82-4.07,1.33-2.39,2.36-3.36c1.03-.96,2.28-1.73,3.76-2.29,1.48-.57,3.15-.85,5.02-.85s3.54.28,5.02.85c1.48.57,2.73,1.33,3.76,2.29s1.81,2.08,2.36,3.36c.54,1.27.82,2.63.82,4.07ZM218.79,24.75c0-.85-.15-1.66-.45-2.42-.3-.76-.75-1.44-1.35-2.03-.6-.58-1.36-1.05-2.27-1.39-.91-.34-1.97-.51-3.17-.51s-2.27.17-3.17.51c-.91.34-1.67.8-2.27,1.39-.6.59-1.05,1.26-1.35,2.03-.3.77-.45,1.57-.45,2.42s.15,1.66.45,2.42c.3.77.75,1.44,1.35,2.03.6.59,1.36,1.05,2.27,1.39.91.34,1.97.51,3.17.51s2.26-.17,3.17-.51c.91-.34,1.67-.8,2.27-1.39.6-.58,1.05-1.26,1.35-2.03.3-.76.45-1.57.45-2.42Z"/>
  <path class="st1" d="M256.71,21.35c0,.87-.1,1.63-.31,2.3s-.47,1.23-.8,1.71c-.33.48-.71.88-1.12,1.2s-.84.58-1.26.76l3.11,7.34h-4.79l-2.86-6.77h-9.36v6.77h-4.49V14.84h16.04c.48,0,1.05.09,1.72.28.67.19,1.31.52,1.92,1.01.61.48,1.13,1.14,1.56,1.98.43.84.64,1.92.64,3.24ZM252.22,21.35c0-.47-.08-.85-.23-1.15-.15-.29-.34-.52-.56-.68-.22-.16-.45-.27-.68-.33-.23-.06-.41-.09-.55-.09h-10.89v4.5h10.89c.1,0,.26-.03.48-.1.22-.07.45-.18.68-.35s.43-.4.6-.69c.17-.29.26-.67.26-1.12Z"/>
  <path class="st1" d="M268.44,34.67V14.84h21.5v4.28h-17.01v3.57h14.97v3.85h-14.97v3.85h17.67v4.28h-22.16Z"/>
  <path class="st1" d="M315.53,34.67h-5.71l-9.31-19.83h4.97l7.19,15.64,7.19-15.64h4.97l-9.31,19.83Z"/>
  <path class="st1" d="M358.45,24.75c0,1.44-.27,2.79-.82,4.07s-1.33,2.39-2.36,3.36c-1.03.96-2.28,1.73-3.76,2.29-1.48.57-3.15.85-5.02.85s-3.54-.28-5.02-.85c-1.48-.57-2.73-1.33-3.76-2.29s-1.81-2.08-2.36-3.36c-.54-1.27-.82-2.63-.82-4.07s.27-2.79.82-4.07c.54-1.27,1.33-2.39,2.36-3.36s2.28-1.73,3.76-2.29c1.48-.57,3.15-.85,5.02-.85s3.54.28,5.02.85,2.73,1.33,3.76,2.29c1.03.96,1.81,2.08,2.36,3.36s.82,2.63.82,4.07ZM353.73,24.75c0-.85-.15-1.66-.45-2.42-.3-.76-.75-1.44-1.35-2.03-.6-.58-1.36-1.05-2.27-1.39-.91-.34-1.97-.51-3.18-.51s-2.26.17-3.17.51c-.91.34-1.67.8-2.27,1.39-.6.59-1.06,1.26-1.35,2.03-.3.77-.45,1.57-.45,2.42s.15,1.66.45,2.42c.3.77.75,1.44,1.35,2.03.6.59,1.36,1.05,2.27,1.39.91.34,1.97.51,3.17.51s2.27-.17,3.18-.51c.91-.34,1.67-.8,2.27-1.39.6-.58,1.05-1.26,1.35-2.03.3-.76.45-1.57.45-2.42Z"/>
</svg>