<?xml version="1.0" encoding="utf-8"?>
<!-- Generator: Adobe Illustrator 30.0.0, SVG Export Plug-In . SVG Version: 9.03 Build 0)  -->
<svg version="1.0" id="Layer_1" xmlns="http://www.w3.org/2000/svg" xmlns:xlink="http://www.w3.org/1999/xlink" x="0px" y="0px"
	 viewBox="0 0 2000 375.5" style="enable-background:new 0 0 2000 375.5;" xml:space="preserve">
<style type="text/css">
	.st0{fill:#FFFFFF;}
</style>
<path class="st0" d="M1899.06,375.5H36.81C16.48,375.5,0,359.02,0,338.69V36.81C0,16.48,16.48,0,36.81,0h1862.25
	c20.33,0,36.81,16.48,36.81,36.81v301.87C1935.87,359.02,1919.39,375.5,1899.06,375.5z"/>
<g id="icon-carfax" transform="translate(0.000000,477.000000) scale(0.100000,-0.100000)">
	<path d="M259,4751c-118-38-203-123-239-241c-20-64-20-85-18-1640l3-1575l31-65c37-79,107-150,183-188l56-27h9410h9410l56,28
		c67,32,151,118,182,184l22,48l3,1590c2,1204,0,1601-9,1633c-31,112-135,217-250,253c-59,19-286,19-9422,18
		C712,4769,313,4768,259,4751z M19112,4575c23-17,54-51,68-75l25-45l3-1535c1-1042-1-1551-8-1586c-13-60-56-116-111-144
		c-38-20-104-20-9407-20H313l-44,23c-24,13-57,43-74,66l-30,43l-3,1561c-2,1106,0,1573,8,1600c14,49,65,106,115,128
		c39,18,364,18,9412,16l9371-2L19112,4575z"/>
	<path d="M320,2895V1330h1500h1500v1565v1565H1820H320V2895z M2175,3931c248-65,406-213,527-492c21-51,35-95,31-100
		c-11-11-515-211-519-206c-2,2-24,44-48,93c-78,161-136,205-276,212c-107,5-169-18-231-85c-102-111-153-347-129-599
		c21-227,91-373,211-439c49-27,63-30,144-30c150,0,229,52,324,212c24,40,46,71,50,69c358-192,481-260,481-265c0-4-28-49-61-100
		c-180-274-407-396-754-408c-128-4-165-2-255,17c-294,60-496,219-625,492c-88,187-121,373-112,636c12,340,102,570,301,767
		c131,130,276,206,453,240C1801,3966,2068,3959,2175,3931z"/>
	<path d="M3470,2895V1330h1505h1505v1565v1565H4975H3470V2895z M5651,2910c208-569,378-1041,379-1047c0-10-66-13-299-13h-300
		l-61,190l-61,190l-316-2l-317-3l-60-185l-61-185l-309-3l-308-2l4,22c4,17,689,1925,738,2054l10,24l292-2l291-3L5651,2910z"/>
	<path d="M4956,3218c-16-80-122-470-141-520c-7-17,5-18,165-18c157,0,172,2,166,17c-13,32-156,582-156,597c0,9-4,16-8,16
		S4966,3268,4956,3218z"/>
	<path d="M6600,2895V1330h1500h1500v1565v1565H8100H6600V2895z M8412,3917c250-49,411-154,493-322c56-114,69-180,69-345
		c0-130-3-153-27-226c-49-147-149-271-281-348c-36-21-66-40-66-43c0-2,91-173,201-381c111-207,206-385,211-395c8-16-8-17-317-15
		l-327,3l-169,345l-169,345l-120,3l-120,3v-351v-350h-285h-285v1051v1051l558-5C8219,3933,8351,3929,8412,3917z"/>
	<path d="M7790,3231v-231h218h218l55,28c64,32,93,72,109,148c19,92-10,192-67,232c-58,40-92,45-315,50l-218,4V3231z"/>
	<path d="M9760,2895V1330h1505h1505v1565v1565h-1505H9760V2895z M12080,3690v-250h-535h-535v-145v-145h330h330v-245v-245h-330h-330
		v-410v-410h-295h-295v1043c0,574,3,1047,7,1050c3,4,377,7,830,7h823V3690z"/>
	<path d="M12910,2895V1330h1505h1505v1565v1565h-1505h-1505V2895z M15060,2895c202-561,371-1030,374-1042l7-23h-304h-304l-59,185
		l-59,185h-311h-311l-59-185l-59-185h-312h-313l23,63c13,34,183,504,378,1045l354,982l293-2l294-3L15060,2895z"/>
	<path d="M14372,3200c-12-60-49-204-82-319s-60-212-60-215c0-7,325-8,332-1c3,3-2,32-12,63s-48,174-85,317s-68,261-69,262
		S14384,3260,14372,3200z"/>
	<path d="M16040,2895V1330h1505h1505v1565v1565h-1505h-1505V2895z M18965,2895V1405l-226-3l-226-2l-313,447
		c-172,247-313,453-313,458c0,6,158,231,352,502c193,271,354,499,357,508c6,14-32,15-347,13l-354-3l-58-85c-52-77-202-321-271-444
		l-28-48l-45,78c-54,95-129,217-236,382l-79,122h-370h-370l18-27c9-16,172-248,362-516c189-269,341-494,339-502
		c-6-13-555-779-609-847l-30-38h-199h-199v1495v1495l1423-2l1422-3V2895z M17644,1663c63-109,125-213,137-230l21-33h-282
		c-277,0-282,0-269,19c86,122,140,209,246,399c13,23,25,42,27,42S17580,1771,17644,1663z"/>
	<path d="M19672,4742c-73-26-122-69-157-137c-77-150-2-338,157-391c99-33,227-6,301,64l27,26v172v172l-32,33
		C19899,4750,19769,4776,19672,4742z M19868,4670c58-34,95-84,112-153c13-50,2-107-32-169l-21-37l-49,62l-49,61l36,18
		c62,32,74,107,26,160l-29,33l-111,3l-111,4v-176v-176h23c36,0,47,19,47,82c0,80,23,79,80-4c24-35,45-65,47-67c1-2,19-7,39-10l36-6
		l-40-23c-23-13-64-26-92-29c-43-5-59-1-114,26c-59,29-67,37-96,94c-26,53-31,72-29,130c1,37,6,67,10,67c5,0,6,7,3,15
		c-4,10,8,28,32,50C19676,4707,19774,4723,19868,4670z M19824,4590c21-8,26-16,26-44c0-44-20-56-94-56h-56v49c0,46,2,50,28,54
		C19779,4601,19799,4600,19824,4590z"/>
</g>
</svg>
