<?xml version="1.0" encoding="UTF-8"?>
<svg id="gh-logo" xmlns="http://www.w3.org/2000/svg" version="1.1" viewBox="0 0 117 48">
  <!-- Generator: Adobe Illustrator 30.0.0, SVG Export Plug-In . SVG Version: 2.1.1 Build 123)  -->
  <defs>
    <style>
      .st0 {
        fill: #fff;
      }
    </style>
  </defs>
  <path class="st0" d="M23.36,22.53c-.26-5.5-4.23-7.52-8.46-7.49-4.56.02-8.19,2.36-8.81,7.59l17.27-.1ZM5.98,26.53c.35,5.33,4.04,8.45,9.09,8.42,3.5-.02,6.6-1.46,7.63-4.57l6.05-.03c-1.14,6.3-7.82,8.47-13.57,8.5C4.71,38.91.04,33.18,0,25.4c-.05-8.56,4.72-14.21,15.12-14.27,8.27-.05,14.36,4.25,14.42,13.71v1.56s-23.56.13-23.56.13Z"/>
  <path class="st0" d="M44.64,34.68c5.45-.03,9.15-3.98,9.12-9.9s-3.79-9.83-9.23-9.8-9.15,3.98-9.12,9.9,3.81,9.83,9.23,9.8ZM29.4.73l5.87-.03.08,14.74c2.86-3.44,6.81-4.46,10.71-4.48,6.54-.04,13.82,4.33,13.88,13.86.04,7.95-5.7,13.82-13.83,13.86-4.28.02-8.27-1.48-10.76-4.49,0,1.2-.05,2.39-.18,3.58l-5.75.03c.09-1.84.18-4.19.17-6.06l-.18-31.01Z"/>
  <path class="st0" d="M74.11,25.37c-5.32.21-8.62,1.18-8.6,4.68.01,2.27,1.86,4.72,6.43,4.69,6.15-.03,9.42-3.41,9.39-8.91v-.61c-2.16.02-4.83.05-7.22.15ZM87.24,32.57c0,1.71.07,3.39.22,4.89l-5.45.03c-.14-1.22-.21-2.44-.22-3.67-2.93,3.64-6.43,4.71-11.3,4.74-7.22.04-11.11-3.75-11.14-8.17-.04-6.39,5.21-8.68,14.34-8.94,2.49-.07,5.3-.1,7.62-.11v-.61c-.02-4.28-2.78-6.03-7.53-6-3.53.02-6.11,1.5-6.38,4.03l-6.17.03c.62-6.3,7.22-7.93,13.04-7.96,6.97-.04,12.86,2.41,12.9,9.77l.07,11.96Z"/>
  <path class="st0" d="M88.17,19.74l-4.32-8.02,6.86-.04,10.16,20.06,9.9-20.16,6.22-.05-17.94,35.72-6.57.04,5.16-9.92-9.48-17.64"/>
</svg>