<?xml version="1.0" encoding="UTF-8"?>
<svg id="gh-logo" xmlns="http://www.w3.org/2000/svg" version="1.1" viewBox="0 0 117 25.13">
  <!-- Generator: Adobe Illustrator 30.0.0, SVG Export Plug-In . SVG Version: 2.1.1 Build 123)  -->
  <defs>
    <style>
      .st0 {
        fill: #919191;
      }

      .st1 {
        fill: #eb1b2f;
      }
    </style>
  </defs>
  <g>
    <polygon class="st0" points="101.05 15.29 112.18 15.29 113.52 10.12 94.92 10.12 91.23 24.26 110.81 24.26 112.47 17.83 100.37 17.83 101.05 15.29"/>
    <polygon class="st0" points="115.07 7.26 116.76 .83 97.35 .83 95.66 7.28 115.07 7.26"/>
  </g>
  <g>
    <polygon class="st0" points="93.19 7.28 94.88 .83 87.33 .83 85.64 7.28 93.19 7.28"/>
    <polygon class="st0" points="82.22 7.28 79.23 .83 72.11 .83 70.42 7.28 82.22 7.28"/>
    <polygon class="st0" points="84.89 10.12 84.4 12.01 83.53 10.12 69.68 10.12 65.99 24.26 73.54 24.26 76.59 12.61 81.99 24.26 88.76 24.26 92.45 10.12 84.89 10.12"/>
  </g>
  <g>
    <polygon class="st0" points="59.53 10.12 55.84 24.26 63.46 24.26 67.14 10.12 59.53 10.12"/>
    <polygon class="st0" points="67.89 7.28 69.57 .83 61.96 .83 60.27 7.28 67.89 7.28"/>
  </g>
  <g>
    <polygon class="st0" points="48.02 7.28 49.7 .83 42.09 .83 40.4 7.28 48.02 7.28"/>
    <polygon class="st0" points="47.28 10.12 39.66 10.12 35.97 24.26 53.96 24.26 55.71 17.56 45.34 17.56 47.28 10.12"/>
  </g>
  <g>
    <polygon class="st1" points="37.93 7.28 39.61 .83 32.07 .83 30.38 7.28 37.93 7.28"/>
    <polygon class="st1" points="26.96 7.28 23.97 .83 16.85 .83 15.16 7.28 26.96 7.28"/>
    <polygon class="st1" points="29.63 10.12 29.14 12.01 28.27 10.12 14.42 10.12 10.73 24.26 18.28 24.26 21.33 12.61 26.73 24.26 33.5 24.26 37.19 10.12 29.63 10.12"/>
  </g>
  <g>
    <polygon class="st1" points="12.62 7.28 14.31 .83 6.7 .83 5.01 7.28 12.62 7.28"/>
    <polygon class="st1" points="4.27 10.12 .58 24.26 8.19 24.26 11.88 10.12 4.27 10.12"/>
  </g>
</svg>